<?xml version="1.0" encoding="UTF-8"?>
<svg id="Layer_1" data-name="Layer 1" xmlns="http://www.w3.org/2000/svg" viewBox="0 0 2271 501.1">
  <defs>
    <style>
      .cls-1 {
        fill: #e6f0f0;
        stroke-width: 0px;
      }
    </style>
  </defs>
  <path class="cls-1" d="m0,5.4v5.4l17.7,16.4c9.8,8.9,27.4,25.3,39.3,36.3s35.7,33,53,49c17.3,15.9,34.4,31.7,38,35,3.6,3.4,9.4,8.8,13,12.1,3.6,3.2,6.7,6.1,7,6.4s5,4.5,10.5,9.5c5.5,4.9,13.6,12.3,18,16.5,4.4,4.1,10.7,10,14,13,26.3,24.1,31.2,28.7,32.5,30,6,6,15.3,14,16.2,14,.7,0,5.9-4.8,11.6-10.8,5.7-5.9,21.7-22.2,35.5-36.2,13.9-14,38.9-39.5,55.7-56.5,50.2-51,96.7-98,98.4-99.4,1.4-1.2,2.9-.2,10.9,7,5,4.6,13.7,12.7,19.2,18s12.5,11.8,15.5,14.4,9.3,8.4,14,12.9c7.5,7.2,29.6,28,50.5,47.5,3.9,3.6,11.3,10.6,16.5,15.6,10.4,9.8,26.7,25.1,57.3,53.5,10.8,10,19.7,19,19.7,19.8,0,.9-3.5,4.9-7.7,9-4.3,4.1-24,23.5-43.8,43.1-29.4,29.1-140.8,138.7-147.7,145.4-1.1,1-1.8,2.4-1.6,3.2.3,1.3,11.2,11.4,41.8,39,6.9,6.1,16.1,14.6,20.5,18.8l8,7.6,18.5.1h18.5l15-14.8c8.3-8.1,22-21.4,30.5-29.6s24.1-23.3,34.5-33.5c10.5-10.2,25.6-24.9,33.5-32.5,29.9-28.8,65.9-63.6,93-90.1,36.1-35.1,74.3-72,75.1-72.5.5-.3,7.1-6.6,14.6-14,7.6-7.4,19.7-19,26.8-25.9,7.2-6.9,24.7-23.9,39-37.6,14.2-13.8,28-27,30.5-29.5,6.5-6.3,25.5-24.6,53-51,12.9-12.4,30.2-29.1,38.5-37.1,8.2-8,19.3-18.6,24.5-23.7l9.5-9.2h-36.5l-15.8,15.4c-8.6,8.4-16.9,16.4-18.3,17.7-3.7,3.4-55.2,53.3-73.9,71.6-8.5,8.3-16.8,16.4-18.5,17.8-1.6,1.5-8.4,8-15,14.4-35.2,34.2-50.4,48.9-73.9,71.6-27,25.9-49.9,48.2-84.1,81.5-11,10.7-25.2,24.4-31.5,30.5-17.2,16.5-41.2,39.9-62,60.2-10.2,10-21.5,21-25.1,24.5-14.7,14.1-37.4,36.2-55,53.2-10.2,10-20.6,20.1-23.2,22.5l-4.6,4.4-10.8-9.9c-5.9-5.4-11.3-10.3-11.9-10.9-.6-.5-7.7-7-15.8-14.4-8-7.4-14.6-14-14.6-14.6,0-1.2,24.3-25.4,107.5-107,26.3-25.9,58.4-57.3,71.2-69.9s23.3-23.3,23.3-23.8c0-1.2.9-.4-39.5-37.8-19.8-18.3-39.8-37-44.5-41.4-21.5-20.4-28.5-27-41.5-39.1-7.7-7.2-22.1-20.7-32-30-9.9-9.4-23.2-21.7-29.5-27.5s-15.8-14.6-21-19.6c-5.2-4.9-16.8-15.9-25.7-24.2l-16.1-15.2h-17.9l-17.8.1,5.5,5.1c16.8,15.6,22.1,21,21.8,22.2-.2.8-22.1,23.5-48.8,50.6s-60.6,61.7-75.5,76.9c-14.8,15.2-34.5,35.2-43.6,44.5l-16.7,17-9.9-9c-5.4-4.9-10-9.1-10.3-9.4-.7-.8-30.6-28.5-37-34.5-3-2.7-11.6-10.7-19-17.6s-33.5-30.9-58-53.4-48.8-44.9-54-49.9-17.7-16.7-27.8-25.9L23,0H0v5.4Z"/>
  <path class="cls-1" d="m62,3.2c5.6,5,35.9,33.1,50,46.3,4.1,3.9,13.1,12.2,20,18.5,6.9,6.2,16.6,15.2,21.5,19.9,5,4.7,16.9,15.8,26.5,24.6s18.2,16.7,19,17.5c.9.8,6.6,6,12.6,11.6,29.9,27.6,40.9,37.9,41.2,38.6,1.2,2.7,6.5-1.9,29.3-25.4,14-14.5,36.5-37.5,50-51.3,13.5-13.7,35.6-36.2,49-49.8,13.4-13.7,24.5-25.5,24.7-26.2.4-1.8-15.3-16.5-17.6-16.5-.5,0-15.7,15.1-33.7,33.5s-33.4,33.5-34.2,33.5-8.3-6.4-16.7-14.3c-8.3-7.8-26.4-24.6-40.1-37.2-13.7-12.7-25.8-23.8-26.7-24.8-1.6-1.5-4-1.7-19.3-1.7h-17.5l6.7,6.2c3.7,3.5,10.6,9.9,15.3,14.3s15.1,14.1,23,21.5c8,7.4,17.7,16.4,21.5,20,3.9,3.6,12.6,11.7,19.5,18,16.4,15.1,17.2,15.9,16.3,17.5-1.7,2.9-47.7,49.5-48.9,49.5-1.3,0-4.7-3-29.4-25.9-16.2-15.1-25.1-23.2-33-30.5-3.6-3.3-12.8-11.8-20.5-19s-17.8-16.7-22.5-21.1c-9.5-8.9-27.2-25.2-36.5-33.6-3.3-3-8.7-8-12.1-11.2l-6.1-5.7h-17.4l-17.4.1,3.5,3.1Z"/>
  <path class="cls-1" d="m130,.9c0,.5.4,1.1.9,1.3.9.3,16.7,14.7,30.6,27.9,4.4,4.1,10.2,9.5,12.9,12,2.7,2.4,6.6,6,8.6,7.9s6.4,6,9.6,9c3.3,3,12.4,11.6,20.4,19s18.8,17.3,23.9,22c5.2,4.7,10.6,9.5,12,10.8l2.5,2.3,5.4-5.3c7.8-7.5,10.1-10.1,10.2-11.4,0-.6-2.1-3.1-4.7-5.5-4.8-4.3-25.7-23.5-27.7-25.4-.6-.6-8.7-8.1-18.1-16.6-9.3-8.5-19.3-17.7-22-20.4s-10.9-10.3-17.9-16.8l-12.9-11.7h-16.8c-9.6,0-16.9.4-16.9.9Z"/>
  <path class="cls-1" d="m274.1,2.6c5.4,5.8,43.1,39.9,44.4,40.2s35.1-33.2,40.6-40.1l2-2.7h-34.7l-4.4,4.5c-2.4,2.5-4.7,4.5-5,4.5-.3-.1-2.7-2.1-5.4-4.5l-5-4.5h-34.9l2.4,2.6Z"/>
  <path class="cls-1" d="m493.5,6.8c3.9,3.7,19.8,18.6,35.3,33.1s28.2,27,28.2,27.6c0,.7,1,1.6,2.3,1.9,1.2.3,5.8,4.1,10.2,8.3,4.4,4.3,14.7,14.1,23,21.8,15.6,14.7,29.5,27.8,45.5,43,10.4,9.8,28.6,26.7,47.5,44,6.6,6,15.4,14.1,19.5,18,15.5,14.6,21.6,20.4,26.3,24.5,2.6,2.4,4.7,4.9,4.7,5.7,0,.7-10.5,11.6-23.2,24.1-36.6,35.7-51.9,50.6-57.5,55.8-2.8,2.7-24.2,23.6-47.5,46.5-23.2,22.9-49.6,48.7-58.5,57.4-9,8.7-16.3,16.4-16.3,17.1,0,2,15.2,15.5,17.1,15.2.9-.2,17.3-15.6,36.4-34.3s37.7-36.9,41.3-40.5c47.8-46.3,103.8-100.7,129.7-126,22.6-22.1,45.1-44.1,54-52.7,7.5-7.2,63.6-61.4,100-96.8,17.6-17,38.5-37.3,46.5-45s20.4-19.6,27.5-26.6c7.2-6.9,16.8-16.2,21.5-20.7l8.5-8.2h-36.4l-4.5,4.2c-2.4,2.4-16.9,16.5-32.3,31.4-36.8,36-44.6,43.3-45.7,43.4-1,0-5.8-4.4-24.1-21.9-6.1-5.9-18.4-17.6-27.5-26.1s-20.1-19-24.5-23.2l-8-7.8h-36l6.5,6.2c3.6,3.4,10.1,9.6,14.5,13.8,4.4,4.1,13.4,12.7,20,19s19.7,18.7,29,27.5c9.4,8.8,20.4,19.2,24.5,23.2l7.5,7.3-16,15.8c-8.8,8.6-20.8,20.4-26.7,26.1l-10.7,10.3-8.3-7.8c-4.6-4.3-11.9-11.2-16.3-15.3-4.4-4.2-15-14.1-23.5-22.1-28.5-26.8-43.5-41-63.5-60.1-6-5.8-13.9-13.2-17.5-16.5-3.6-3.2-10.5-9.8-15.5-14.6-14.6-14.1-11.6-12.9-31.9-12.6l-17.5.3,23,21.5c12.7,11.8,28.1,26.2,34.2,31.9,6.2,5.7,14.8,13.9,19.2,18,6,5.8,67.6,63.8,78.6,74.1,12.6,11.8,20.7,20.4,20.1,21.4-1.9,3.1-50.9,49.6-51.9,49.4-.6-.2-4-3-7.5-6.3s-8.8-8.2-11.8-10.9c-3-2.8-12.7-11.8-21.5-20.1s-19.6-18.4-24-22.5c-15.2-13.9-31.9-29.6-57.9-54-14.4-13.5-29.7-27.9-34.1-32s-12.2-11.6-17.5-16.5c-5.2-5-12.9-12.2-17.1-16-4.1-3.9-15-14.1-24.2-22.8l-16.7-15.7h-35.5l7,6.8Z"/>
  <path class="cls-1" d="m564,5.3c3.1,2.8,16.6,15.5,30,28.2,13.5,12.6,29.2,27.5,35,33.1s13.7,13,17.6,16.5,14.5,13.3,23.5,21.8,18.7,17.5,21.4,20c2.8,2.5,12.7,11.8,22,20.6,31.3,29.4,38.6,36,40.2,36.3,1.7.4,16.3-13.4,16.3-15.4,0-1.1-18.1-18.7-48.5-47-29.2-27.1-41.8-38.9-44.4-41.4-1.4-1.4-17.2-16.3-35.1-33-17.8-16.8-35.9-33.8-40.1-37.8l-7.6-7.2h-35.8l5.5,5.3Z"/>
  <path class="cls-1" d="m715.2,10.7c22.2,21.2,32.5,30.9,40.3,38.3,4.4,4.1,13,12.2,19,18,10.6,10.2,36.3,34.4,45.4,42.9l4.5,4.1,2.5-2.3c1.4-1.2,5.3-4.8,8.6-8,4.9-4.8,5.8-6,4.9-7.5-.6-.9-8.9-9.1-18.5-18.1s-25.9-24.6-36.4-34.6c-10.4-9.9-25-23.8-32.4-30.8l-13.3-12.7h-35.9l11.3,10.7Z"/>
  <path class="cls-1" d="m856.5,6.8c21.8,21,38.8,36.7,39.9,36.7,1.2,0,42.9-40.1,43.9-42.3.5-.9-3.3-1.2-17.1-1.2h-17.8l-4.4,4.5c-2.4,2.5-4.9,4.5-5.5,4.5s-3.1-2-5.5-4.5l-4.4-4.5h-36.1l7,6.8Z"/>
  <path class="cls-1" d="m1115,10.3c-5.8,5.6-19.5,18.7-30.5,29.2-11,10.4-27.2,26-36,34.5-8.8,8.6-27.5,26.6-41.5,40-14,13.5-30.9,29.8-37.5,36.2s-14,13.6-16.5,16c-10.4,9.9-53.5,51.3-67,64.4-8,7.7-20.1,19.4-27,25.9-6.9,6.6-17.7,16.9-24,23-12,11.6-70.6,68.3-94,90.9-7.4,7.2-24.5,23.7-38,36.6s-31.5,30.3-40,38.6c-14.3,13.9-24.9,24.2-48.5,46.7l-9,8.6,17.5.1h17.5l10-9.6c5.5-5.3,15-14.3,21-20.1,6.1-5.8,16.4-15.8,23-22.2,10.4-10.2,28.4-27.5,78-75.1,6.6-6.3,18-17.4,25.5-24.6,7.4-7.1,18.9-18.2,25.5-24.5,6.5-6.2,18.2-17.5,26-24.9,21.5-20.8,37.7-36.3,39.6-38,.9-.8,7.9-7.6,15.5-15.1,7.7-7.4,18.6-18,24.4-23.4,5.8-5.5,22.4-21.4,37-35.4,14.6-14.1,32.1-31,39-37.5,6.9-6.6,17.7-17.1,24.1-23.3,6.5-6.2,12.3-11.3,13-11.3.8,0,3.9,2.4,6.9,5.3s10,9.5,15.5,14.7,21.5,20.5,35.5,34c33.2,31.9,45.9,44.1,60.5,58,31.2,29.8,80.9,77.4,90.2,86.4l7.2,7,4.8-4.5c10.7-9.8,93-86.6,110.8-103.3,10.4-9.8,25.4-23.7,33.2-31,7.8-7.2,14.2-13.8,14.2-14.7.1-.8-3.5-5.1-7.9-9.4l-8.1-7.8-3.7,3.4c-2,1.9-7.1,6.6-11.2,10.4s-11.8,11-17,16c-5.3,4.9-15.6,14.7-23,21.6s-24.3,22.6-37.5,35c-13.2,12.3-26.5,24.6-29.5,27.4-3,2.7-9.6,9-14.6,13.8-6.9,6.6-9.6,8.7-10.7,8-.9-.4-9.5-8.5-19.3-17.8-9.7-9.4-21-20.1-25-23.9-4.1-3.8-7.4-7.7-7.3-8.5.1-.9,7.4-8.3,16.3-16.5,8.8-8.3,24-22.4,33.6-31.5s21.3-20.2,26-24.7c4.7-4.4,16.2-15.2,25.5-23.9,9.4-8.8,20.6-19.4,25-23.6s10.1-9.6,12.8-11.9c2.6-2.3,4.7-4.8,4.7-5.5,0-1.6-14.8-16.5-16.5-16.5-1.1,0-13.7,11.4-34,31-4.9,4.7-17.1,16.2-27,25.5s-21.1,19.9-25,23.5c-3.8,3.7-11,10.5-16,15.1-18.2,17.1-31.1,29.4-37,35.1-3.3,3.2-6.7,5.8-7.4,5.8-.8,0-6.7-5.1-13.1-11.3-6.3-6.1-15.8-15.3-21-20.2-5.2-5-25.2-24.2-44.5-42.7-19.2-18.5-37.8-36.2-41.2-39.3-3.5-3.2-6.3-6.3-6.3-7,0-.6,2.1-3.1,4.8-5.6,8.4-7.7,62.2-59.2,79.2-75.7L1161.5.1h-18l-18-.1-10.5,10.3Z"/>
  <path class="cls-1" d="m1194.2,4.7c-7.2,6.9-19.8,19-43.2,41.2-11.3,10.8-25.4,24.4-31.5,30.3-6,5.8-13.4,12.8-16.2,15.4-2.9,2.6-5.3,5.2-5.3,5.9,0,.6,4.2,5.1,9.3,10,5,4.9,20.2,19.5,33.7,32.4,13.4,13,28.9,27.9,34.3,33.1s10.4,9.8,11.1,10.2c.8.4,3.5-1.4,7.2-4.9,3.2-3.1,9.3-8.8,13.4-12.7,4.1-4,14.7-13.9,23.5-22.1s21-19.7,27-25.5c14.1-13.6,24.1-23,44.5-42,9.1-8.4,19.6-18.4,23.5-22.2,3.8-3.7,7.7-6.8,8.5-6.8s13.2,11.5,27.5,25.5l26,25.4-8.5,8.4c-8.6,8.4-34,32.5-52.5,49.7-5.5,5.1-17,15.9-25.5,24-24.4,22.9-47,44.2-53.2,50-3.2,2.9-5.8,5.8-5.8,6.4,0,1.4,15.5,15.6,17.1,15.6.6,0,7.3-5.7,14.8-12.8,7.4-7,14.5-13.6,15.7-14.7s5-4.7,8.5-8c3.5-3.4,10.2-9.6,14.9-14,9.2-8.5,21.2-19.8,35.6-33.4,4.9-4.7,15-14.2,22.4-21.1s16.8-15.7,21-19.7c8.7-8.2,12.4-11.3,13.8-11.3,1.9,0,52.1,50.1,51.6,51.5-.5,1.2-10.8,10.9-51.9,48.9-8.2,7.7-18.8,17.6-23.5,22-9,8.6-30.4,28.7-43,40.3-35.5,32.9-55.3,51.4-74.7,69.7l-6.3,5.9-2.2-1.9c-1.3-1-6.8-6.1-12.3-11.4-24-22.9-56.9-54.4-68-65-21.9-21-56.8-54.4-66.9-64-5.5-5.2-15.7-14.9-22.6-21.5-11.2-10.7-23.6-22.6-38.6-36.8l-5.1-4.8-5.1,4.8c-2.8,2.6-9.7,9.3-15.4,14.8s-20.7,19.9-33.3,32c-23.8,22.8-31.1,29.7-70.5,67.6-12.9,12.4-34.7,33.2-48.5,46.3-13.7,13.1-25.7,24.6-26.5,25.5-.9.9-6.5,6.3-12.5,12.1-6.1,5.8-19.9,19.1-30.9,29.5-10.9,10.5-22.1,21.2-25,24-2.9,2.7-14.6,14-26.1,25-25.2,24-46.1,44.2-61,58.7l-11,10.8h17.5l17.5-.1,12.6-12.2c18.7-18.1,52.1-50.1,62.9-60.3,9.5-8.9,46.2-44,66-63,19.5-18.7,34.3-32.9,36-34.4.9-.8,6.6-6.2,12.6-12s17-16.3,24.4-23.5c13.2-12.6,29.3-28.1,39.7-37.9l5.1-4.9,16.9,15.9c9.2,8.7,30.8,29.2,47.8,45.4,17.1,16.2,38.2,36.2,47,44.5,8.8,8.2,19.8,18.6,24.5,23,9,8.6,22.6,21.3,24.6,23,.6.5,6.1,5.7,12.1,11.5s14.2,13.6,18.3,17.5c4.1,3.8,11.8,11,17,16,11,10.5,40.9,38.7,49.1,46.3l5.6,5.2h44.4l17.7-16.2c9.7-9,23-21.2,29.6-27.2,6.7-6,15-13.6,18.6-17s11.5-10.6,17.5-16.1c13.9-12.5,46.6-42.6,56.5-52,4.1-3.8,12.7-11.7,18.9-17.5,6.3-5.8,12.9-11.9,14.6-13.5,1.7-1.7,7.8-7.2,13.5-12.4,5.8-5.2,13.4-12.2,17-15.6,7.5-7.1,23.2-21.8,30.5-28.5,2.8-2.6,10.4-9.5,17-15.5s15.2-13.9,19-17.6c3.9-3.6,8.7-8.1,10.8-9.9,2-1.8,3.7-4,3.7-4.9,0-1-8-9.5-17.7-19.1-19.5-19-69.2-68-120.8-118.9-56.7-56-88.8-87.1-89.8-87.1-1.2,0-5.4,3.8-27.6,24.9-9.6,9.1-17.9,17-18.6,17.6-1.3,1.2-10.2,9.6-35,33.1-59,55.8-64.3,60.8-65.6,61.2-1.3.5-5-2.8-30.7-27.7-12.8-12.4-23.1-23-23-23.7.2-.6,21.5-21.3,47.3-45.9,25.9-24.6,48.6-46.3,50.5-48.1l3.5-3.4h-36.4l-4.9,4.7Zm-144.8,186c3.4,3.1,12,11.3,19.1,18.2,7.2,6.9,21.3,20.5,31.5,30.1,10.1,9.6,23.4,22.3,29.5,28.1,6,5.8,15,14.4,19.9,19s11.5,10.9,14.7,13.9,14,13.4,24.1,23,23.3,22.2,29.3,28c36,34.7,38.6,37.1,40.2,36.7,1.2-.2,16.5-14,31.8-28.6,5-4.7,12.2-11.5,16-15,3.9-3.5,11.1-10.3,16-15,5-4.7,11.5-10.8,14.5-13.5,5.9-5.3,17.8-16.4,61-56.6,67.8-63.3,76.4-71.2,78.3-72.1,1.7-1,4.9,1.9,27.3,24.2,14,14,25.4,25.6,25.4,25.9,0,.4-15.9,15.3-35.2,33.2-19.4,18-40,37-45.8,42.4-5.8,5.3-15.7,14.5-22,20.3s-18.2,16.9-26.5,24.5c-28.4,26.4-39,36.2-46.5,43.1-8.1,7.4-15.6,14.3-26.5,24.5-3.9,3.6-11.7,10.8-17.5,16s-13.4,12.2-17,15.6c-21.5,19.9-34.3,31.4-35.3,31.4-.7,0-19.8-17.7-44.7-41.5-4.7-4.5-12.8-12.1-18-17.1-5.2-4.9-18.3-17.2-29-27.4-19.3-18.4-29.7-28.2-46-43.5-4.7-4.4-13.2-12.5-19-18s-14.6-13.8-19.5-18.5c-10.4-9.8-44.3-42-59-56-23.9-22.8-30.5-29.4-30.5-30.5,0-.6,8.7-9.4,19.3-19.6,10.5-10.1,22.1-21.2,25.7-24.6,3.6-3.5,6.9-6.3,7.4-6.3s3.7,2.6,7,5.7Z"/>
  <path class="cls-1" d="m1033.7,227.3c-4.2,4-7.7,7.7-7.7,8.3,0,1,13.7,14.7,31,30.9,9.8,9.2,25.8,24.4,39.5,37.5,14.5,13.9,48.5,46.2,49.9,47.5.6.5,5.8,5.5,11.6,11,24.1,22.8,30.9,29.3,37.1,35,5.5,5.2,20.4,19.4,52.8,50.2,4.2,4,8.1,7.2,8.7,7,1-.2,10.1-8.3,29.9-26.7,3.8-3.6,9.7-9,13-12,3.3-2.9,9.6-8.8,14.1-12.9,4.4-4.2,10.2-9.6,13-12.1,4.9-4.5,23.1-21.4,48.4-44.9,7.4-6.9,16.4-15.3,20-18.6s9.9-9.1,14-13c16-14.9,21.7-20.2,27.5-25.5,10.3-9.5,32.6-30.2,40.2-37.4,3.9-3.7,8.8-8.2,10.7-10,2-1.7,3.6-4,3.6-5,0-2.1-13.8-15.5-16-15.6-.8,0-4.2,2.6-7.5,5.8-5.1,5-16.8,15.8-41.5,38.6-3,2.8-9.6,8.9-14.5,13.6-5,4.7-12.2,11.4-16.1,15-3.8,3.6-12.6,11.7-19.5,18.1-6.8,6.3-15.3,14.2-18.9,17.4-8.1,7.4-7.2,6.5-17.2,16-10.3,9.8-31,29-39.8,37-3.6,3.2-14.5,13.3-24.3,22.4s-18.1,16.7-18.5,16.9c-1.1.3-3.7-2.1-37.8-34.8-12.6-12.2-32.1-30.6-58.4-55.5-5.2-4.9-13.8-13-19-18s-15.4-14.7-22.5-21.6c-14.7-14-26.2-24.9-27.9-26.4-1.5-1.3-20.1-19.1-35.3-33.8-6.8-6.4-12.8-11.7-13.5-11.7-.7.1-4.8,3.3-9.1,7.3Z"/>
  <path class="cls-1" d="m1266,6.2c-3.6,3.4-15.3,14.5-26,24.8-10.7,10.2-24.2,23.1-30,28.5s-15,14.2-20.5,19.6c-5.5,5.3-11.9,11.3-14.2,13.4-2.4,2-4.3,4.3-4.3,5.1,0,1.3,14.1,15.5,16.1,16.2.5.2,2.9-1.3,5.2-3.4,5.7-5,31.9-29.7,38.2-35.9,2.8-2.8,16.5-15.8,30.5-29,13.9-13.2,30.3-28.8,36.4-34.7l11.1-10.8h-36l-6.5,6.2Z"/>
  <path class="cls-1" d="m1385,24.2c27,26.6,67.7,66.8,155.8,154,32,31.7,58.2,58.2,58.2,58.8,0,1.2-9.2,10.1-31,30-6.9,6.3-14.5,13.2-17,15.5s-10.3,9.5-17.4,16.1c-11.4,10.4-29,26.7-49.1,45.3-3.3,3.1-11.9,11-19,17.6-7.2,6.5-16.8,15.5-21.5,20-4.7,4.4-13.7,12.7-20,18.4-6.3,5.8-16.7,15.2-23,21-6.2,5.9-14.6,13.5-18.5,17-3.8,3.5-9.7,8.9-13,12-9.1,8.4-15.2,13.9-36.4,33.1l-19.3,17.5,17.7.3,17.7.2,12.1-11.3c6.7-6.2,21.4-19.6,32.7-29.7,11.3-10.2,27-24.5,35-32,14.3-13.3,29.7-27.5,43.5-40,3.9-3.5,9.9-9.1,13.5-12.5s9.7-9.1,13.5-12.6c3.9-3.4,7.2-6.6,7.5-6.9s8.8-8.2,19-17.4c10.2-9.3,21-19.2,24-22s10.5-9.6,16.5-15.1c6.1-5.4,14.8-13.5,19.5-18,4.7-4.4,17.6-16.5,28.8-26.9,11.1-10.3,20.2-19.3,20.2-19.8,0-.6-9.2-10.1-20.5-21.2-11.2-11-51.1-50.5-88.6-87.6s-81.9-81.1-98.8-97.7L1396.5.1h-36l24.5,24.1Z"/>
  <path class="cls-1" d="m1501,67.2c128.7,127.9,170,169.2,170,169.8,0,.4-2.1,2.6-4.7,5-2.7,2.4-9.7,8.9-15.8,14.5-25.9,24-52.2,48.2-71,65.5-28.2,25.9-67.5,62.1-70,64.5-1.1,1.1-4.6,4.2-7.6,7-17.7,16.1-31.6,28.8-46.4,42.5-3.8,3.6-13.7,12.6-22,20-8.2,7.4-15.9,14.4-17.1,15.5-2.1,2-20.5,19-27.9,25.8l-4,3.6,17.5.1h17.6l13.9-12.6c7.7-7,20.9-19,29.3-26.8,8.5-7.7,16.4-14.9,17.5-15.9,2.2-1.9,8.6-7.7,41.7-38.2,10.8-9.9,29-26.5,40.5-37,11.6-10.4,24.6-22.4,29-26.5,4.4-4.2,13.4-12.5,20-18.5s15.4-14.1,19.5-18c12-11.2,37.2-34.4,58-53.5,18.2-16.7,48.9-44.9,51-47,.3-.3,3-2.8,6-5.5,3-2.8,10.2-9.3,16-14.5s13.6-12.4,17.5-16c3.8-3.6,9.7-9,13-12,11.3-10.3,30.9-28.5,38.9-36.1,4.5-4.2,19.1-17.7,32.6-29.9,13.5-12.3,29.4-26.9,35.3-32.4,6-5.6,11.7-10.5,12.6-10.9,1.4-.7,5.2,2.7,18.3,16,18.5,18.7,30.9,31.9,32,33.8.5.9-2.6,4.4-9.4,10.7-27.4,25.1-38.9,35.7-45.3,41.7-3.9,3.6-11.3,10.4-16.5,15s-12,10.7-15,13.6c-3,2.8-13.2,12.1-22.6,20.6-18.1,16.3-76.6,69.9-77.4,70.9-.3.4-3.4,3.3-7,6.5-15.1,13.7-25.2,22.8-55.5,50.5-17.6,16.1-40.1,36.7-50,45.9-10,9.1-22.3,20.4-27.5,25.1s-12.2,11-15.5,14.1c-5.9,5.5-55.5,50.6-73,66.3-4.9,4.5-12,10.9-15.7,14.4l-6.7,6.2h17.7l17.7-.1,4.5-4c2.5-2.3,8.3-7.6,13-11.8s11-9.9,14-12.7,7.5-6.8,9.9-9c2.5-2.1,10.8-9.7,18.6-16.9,16-14.8,32-29.3,45-41,4.8-4.4,14.7-13.4,21.9-19.9,22-20.1,33.7-30.8,41.1-37.6,3.9-3.6,11.6-10.6,17-15.5,5.5-5,13.2-11.9,17-15.5,3.9-3.6,13.8-12.6,22-20,17.6-16,27.8-25.3,36-33,3.3-3.1,16.1-14.8,28.5-26,12.4-11.3,23-20.9,23.5-21.5.6-.6,8-7.4,16.5-15,8.5-7.7,21.1-19.1,28-25.5,6.9-6.3,14.8-13.5,17.5-15.9,2.8-2.5,10.2-9.3,16.5-15.1,6.3-5.9,15.2-14.1,19.8-18.3,4.6-4.3,8.9-7.7,9.6-7.7s5.1,3.9,9.7,8.7,15,15.4,23,23.7,15.9,16.5,17.5,18.2,14.2,14.6,27.9,28.8c13.8,14.2,25.3,26.2,25.6,26.7s6.6,7.1,14,14.7c19.4,19.9,63.3,65.6,78.9,82.2,3.3,3.6,11.4,11.9,17.8,18.5,9.9,10.2,29.6,30.8,45.7,47.9,2.2,2.4,9.9,10.2,17,17.5l13,13.3.3-18.2.2-18.2-7.2-7.6c-6.9-7.2-28.7-29.7-37.3-38.6-2.2-2.3-8.3-8.7-13.5-14.2-5.2-5.4-19.2-20.1-31-32.4-11.8-12.4-25.8-27-31-32.4-5.2-5.5-15.8-16.5-23.5-24.5-7.7-7.9-15.1-15.6-16.5-17-6.9-7.3-27.3-28.5-52.5-54.6-15.4-16-34.1-35.3-41.5-43-30.8-31.9-40.2-41.6-53-55-15.5-16-43.5-44.8-46.5-47.7-1.1-1-2.5-1.7-3.1-1.6-1,.2-24.9,21.9-46.9,42.4-1.1,1.1-9.9,9.1-19.5,17.8-9.6,8.8-21.3,19.6-26,24-23.8,22.7-55.4,51.1-56.9,51.4-1.2.2-26.2-24.4-76.2-74.8L1614.3,0l-17.6.2-17.7.3,83,83.5c45.6,45.9,83,83.9,83,84.5,0,.5-6.4,6.8-14.2,14-7.8,7.1-19.8,18.2-26.6,24.5s-12.8,11.7-13.4,11.9c-1,.3-7-5.6-140.3-138.2L1469.5.1h-36l67.5,67.1Z"/>
  <path class="cls-1" d="m1598,92c50.8,50.6,93.1,92,94,92,1.9,0,17-13.7,17-15.5,0-.7-37.7-39-83.7-84.9L1541.6,0h-36.1l92.5,92Z"/>
  <path class="cls-1" d="m1651.4.7c.4.5,26.2,26.6,57.3,58,31.1,31.5,57,57.3,57.5,57.3.8,0,15.5-12.9,28.8-25.5,3.6-3.4,9.9-9.3,14-13.2,4.1-3.8,14-13,21.9-20.4,8-7.4,19.9-18.4,26.6-24.4,6.6-6.1,15.2-14,19-17.6,3.9-3.6,9-8.4,11.5-10.7l4.5-4.1-18-.1h-18l-6,5.5c-3.3,3-6.7,5.5-7.5,5.5s-4-2.5-7-5.5l-5.6-5.5-17.6.2-17.7.3,14,14.2c7.6,7.8,13.9,14.6,13.9,15.1,0,1.8-53.2,51.2-55.1,51.2-.7,0-19.2-18.2-41.2-40.5L1686.7,0h-18c-9.9,0-17.7.3-17.3.7Z"/>
  <path class="cls-1" d="m1745.5,23c12.6,12.6,23.6,23,24.4,23,1.9,0,17.2-15.1,16.9-16.6-.2-.7-6.5-7.6-14.2-15.3l-13.8-14.1h-36.3l23,23Z"/>
  <path class="cls-1" d="m1951.2,13.7c7.4,7.6,23.7,24.6,36.3,37.8s28.5,29.8,35.4,36.9,14.4,14.8,16.6,17.1,12.8,13.3,23.5,24.5,23.8,24.8,29,30.3,11.5,12.1,14,14.6c12.9,13.4,28.3,29.5,54,56.6,15.6,16.5,34.3,36.1,41.6,43.5,7.2,7.4,16.9,17.5,21.5,22.5,14.9,15.9,30.1,31.8,39.1,41l8.8,9v-36.9l-7.3-7.5c-4-4.2-15.1-15.9-24.7-26.1-9.6-10.1-23.6-24.7-31-32.5-7.5-7.7-17.4-18.1-22.1-23-6.8-7.2-40-42-53.7-56.2-1.5-1.6-6.9-7.4-12.1-12.8-11.4-12.1-27.4-28.7-47.6-49.5-13.8-14.3-45.3-47.3-55.4-58-5.4-5.7-20.6-21.6-33.4-34.8l-10-10.2h-35.9l13.4,13.7Z"/>
  <path class="cls-1" d="m2012.5,3.2c2.7,3.1,27.4,29.4,38.5,40.8,3,3.1,13.6,14.1,23.5,24.6,9.9,10.4,23.4,24.5,30.1,31.4,6.6,6.9,21,21.9,31.9,33.5,21.3,22.5,50.7,53.4,67,70.5,5.5,5.8,13.4,14.1,17.5,18.4,4.1,4.4,9.1,9.5,11,11.5,5.5,5.8,20.7,21.8,30.3,31.9l8.7,9.3v-37.3l-14.6-15.4c-8-8.5-15.5-16.5-16.7-17.7-1.2-1.3-8.7-9.2-16.7-17.7s-20.6-21.8-28-29.5-17.8-18.5-23-24-9.7-10.2-10-10.5-7.4-7.7-15.7-16.5c-15.9-16.9-22-23.4-36.1-38-4.8-5-17.9-18.7-29.2-30.5-11.2-11.8-24-25.2-28.4-29.8l-8-8.2h-34.8l2.7,3.2Z"/>
  <path class="cls-1" d="m2086.1,6.7c3.5,3.7,7.1,7.5,7.9,8.3.8.9,10.5,11.1,21.5,22.6s23,24,26.5,27.9c3.6,3.8,7.2,7.6,8.1,8.5.9.8,5.1,5.3,9.5,10,4.3,4.7,15.3,16.4,24.5,26,9.1,9.6,18.3,19.3,20.3,21.5,2.1,2.2,6.5,6.9,9.9,10.5,3.5,3.6,10.7,11.2,16.2,17,5.4,5.8,13.8,14.5,18.5,19.5,4.7,4.9,11.6,12.2,15.3,16.2l6.7,7.2v-37.2l-4.7-5.1c-9.9-10.8-65.5-69.8-79.2-84.1-5.9-6.1-17.1-18-25.1-26.5s-18.6-19.8-23.6-25c-4.9-5.2-12.1-12.8-15.9-16.8l-6.8-7.2h-36l6.4,6.7Z"/>
  <path class="cls-1" d="m2154,3.7c3.4,3.9,24.7,26.6,42.5,45.3,5.5,5.8,12.5,13.2,15.5,16.5s10,10.7,15.6,16.5c15.6,16.3,37.1,39.3,39.4,42.3,1.2,1.5,2.6,2.7,3.1,2.7s.9-7.7.9-18.3v-18.2l-5.2-5.5c-2.8-3-8.1-8.7-11.7-12.5-3.7-3.9-17.6-18.7-31.1-33-13.4-14.3-27.3-29-30.9-32.8l-6.5-6.7h-34.8l3.2,3.7Z"/>
  <path class="cls-1" d="m2223.1,2.7c4.8,5.4,13.6,14.8,23,24.7,5.3,5.6,11.5,12.2,13.7,14.8s5.6,6.1,7.6,7.8l3.6,3.2V16.7l-4.6-5.3c-2.5-3-5.9-6.8-7.6-8.4l-3-3h-35.1l2.4,2.7Z"/>
  <path class="cls-1" d="m0,59.7v16l5.3,4.9c2.9,2.7,7.1,6.5,9.2,8.4,7.1,6.3,30.7,28,42.4,38.9,6.3,5.8,14.2,13,17.5,16,3.4,3,11.3,10.3,17.6,16.1,17.1,16,50.9,47,56,51.5,2.5,2.2,7.9,7.2,12,11.1,6.2,5.8,47.7,44,58.4,53.7,1.7,1.6,6.9,6.3,11.6,10.5,4.6,4.2,14.3,13.1,21.5,19.7,7.1,6.6,25.4,23.3,40.5,37,15.1,13.8,31.6,28.8,36.6,33.5s14.6,13.4,21.4,19.5c30.3,27,91.2,82.3,105.8,96.2l8.7,8.2,17.5.1h17.5l-2.5-2.4c-3.3-3-25.2-22.9-31.5-28.5-20.2-17.9-37.5-34.2-37.5-35.2,0-.7,64-64.5,118.6-118.4,5-5,25.7-25.4,45.9-45.4l36.7-36.5-7.4-7c-4-3.9-13.4-12.7-20.8-19.6s-17.5-16.4-22.5-21.1c-7.6-7.2-12.2-11.5-24.1-22.4-.7-.5-4.3-3.9-8-7.5-8.6-8.2-61.5-57.5-69.8-65-3.3-3-7.6-7-9.6-8.7-1.9-1.8-3.7-3.3-4-3.3-.8,0-152,153.1-188,190.2-6.8,7.1-12.8,12.8-13.4,12.8-.7,0-5-3.5-9.6-7.7-16.8-15.2-28.7-26-43-39.3-8-7.3-17-15.7-20-18.4-3-2.8-9.4-8.6-14.1-13.1-4.7-4.4-12.6-11.6-17.5-16s-12.5-11.4-16.9-15.5c-4.4-4.2-13.2-12.3-19.5-18-6.2-5.8-12.1-11.2-13-12-7.4-6.8-15.6-14.4-20.6-18.9-3.2-3-8.9-8.1-12.5-11.5-14.6-13.6-38.2-35.2-46.4-42.6-3.8-3.4-11.8-10.7-17.7-16.2L0,43.8v15.9Zm469.3,58.2c2.3,2.1,6.1,5.6,8.3,7.8,24.6,22.7,41.4,39,41.4,40.1,0,1.4-183.1,185.4-184.1,185s-35.5-31.6-46.3-41.9c-6.2-5.9-7.7-7.9-7-9.1.5-.9,8.7-9.7,18.3-19.5,34.5-35.3,164.4-166.3,164.8-166.3.3,0,2.4,1.8,4.6,3.9Zm76.6,71.3c3.1,2.9,9.5,8.9,14.2,13.3s14,13.1,20.7,19.4,12.2,11.9,12.2,12.5c0,1.1-182.4,182.8-184.2,183.5-.5.1-1.5-.3-2.1-1.1-1.1-1.3-20.4-19-42.9-39.2-4.9-4.3-8.8-8.6-8.8-9.5,0-2,181.9-184.1,183.9-184.1.8,0,3.9,2.4,7,5.2Z"/>
  <path class="cls-1" d="m391.4,223.6c-40.6,41-74.3,75.3-74.8,76.2-.7,1.3.8,3.3,7.4,9.4,4.5,4.3,8.6,7.8,9,7.8.6,0,69.3-68.6,127.3-127,12.5-12.6,22.7-23.6,22.7-24.4,0-1.3-15.7-16.6-17.1-16.6-.3,0-33.9,33.6-74.5,74.6Z"/>
  <path class="cls-1" d="m464.8,292.6c-41.2,41-74.8,75.2-74.8,75.8,0,1.4,15.3,15.6,16.8,15.6,1.4,0,150.2-148,150.2-149.5,0-1.3-15.4-16.5-16.7-16.5-.5,0-34.4,33.6-75.5,74.6Z"/>
  <path class="cls-1" d="m1907.9,85.7c-.8.9-5,4.8-9.4,8.6s-11.1,10-15,13.6c-3.8,3.7-12.4,11.6-19,17.6s-12.2,11.2-12.5,11.6-2.3,2.2-4.5,3.9-7.1,6.2-11,9.9c-7.2,6.8-41,38.2-49.9,46.2-2.7,2.4-6.3,5.7-8.1,7.4-1.7,1.6-5.1,4.8-7.6,7-8.6,7.8-40.4,36.9-40.9,37.4-.3.3-5.4,5.1-11.5,10.6-6,5.5-11.4,10.5-12,11.1-.5.6-11.3,10.5-24,21.9-12.6,11.5-29.5,27-37.5,34.4s-17.4,16.2-21,19.5-8.7,8.1-11.5,10.6c-5.1,4.7-22.6,20.7-39.6,36.1-39.7,36.1-63.4,57.7-74.9,68.4-4.1,3.8-10,9.2-13,11.9s-10.4,9.4-16.3,15c-6,5.6-11.3,10.2-11.8,10.4s-.9.8-.9,1.3,7.4.9,17.3.9l17.2-.1,6-5.6c6.2-5.7,57.1-52.2,66-60.2,2.8-2.4,7.7-7,11-10,3.3-3.1,12.5-11.5,20.5-18.6,8-7.2,17.6-16,21.5-19.6,3.8-3.6,11.7-10.8,17.5-16,12.2-11,11.5-10.3,21.6-19.9,4.3-4.2,12.6-11.8,18.4-17s10.9-10,11.5-10.6c.5-.6,6.4-5.9,13-11.9s15.2-13.8,19.1-17.4c3.8-3.6,11.7-10.9,17.5-16.1,5.7-5.2,13.6-12.4,17.4-16,3.9-3.6,9.7-9,13-12,13.3-12,50-45.5,50.5-46,1-1.1,28.9-26.7,38.6-35.4s23.1-21,38.4-35.1c11.4-10.6,27-24.8,31.3-28.4,2-1.8,3.7-4.1,3.7-5,0-2.1-14-16.1-16.2-16.1-.8,0-2.2.7-2.9,1.7Z"/>
  <path class="cls-1" d="m0,123.8v16l5.3,4.7c18.5,16.8,24.5,22.2,35.7,32.5,6.9,6.3,15.4,14.2,19,17.5,3.6,3.4,9.2,8.6,12.5,11.6s6.2,5.6,6.5,5.9,5.5,5.1,11.5,10.5c6.1,5.5,13,11.8,15.5,14.1s13.3,12.1,24,21.9,27.2,24.8,36.5,33.4c9.4,8.7,21.7,19.9,27.5,25.1s15.9,14.4,22.5,20.5c6.6,6,12.5,11.4,13.1,12,.6.5,5.6,5.1,11,10.1s17.3,15.7,26.4,23.9c15.5,13.9,28.5,25.8,43.9,40,3.7,3.4,10.2,9.2,14.6,13s10.9,9.7,14.5,13.1,8.5,7.9,11,9.9c2.5,2.1,9,7.9,14.5,12.9,18.4,16.8,21,19.2,26.4,23.9l5.3,4.7h15.9c8.7,0,15.9-.4,15.9-.8,0-.7-15.5-15.1-39.8-36.9-14.2-12.9-21.3-19.3-30.7-27.8-6-5.5-12.8-11.5-15-13.4s-6.7-5.9-10-9c-3.4-3.1-8.5-7.8-11.5-10.5s-9.8-8.8-15-13.6-20.7-19-34.5-31.5c-13.7-12.5-31.7-28.9-39.9-36.4s-15.8-14.4-17-15.4-4.1-3.8-6.6-6.1c-4.4-4.1-45.3-41.5-56-51.2-3-2.7-11.8-10.8-19.5-17.9-7.7-7.2-19.2-17.7-25.5-23.5s-12.1-11.2-13-12-3.6-3.3-6.1-5.6c-26.9-24.6-57.5-52.7-61.9-56.8-3-2.8-10.3-9.6-16.2-15L0,107.8v16Z"/>
  <path class="cls-1" d="m1958.9,169.7c-10,9.3-22,20.2-26.5,24.3-4.6,4.1-15.4,14-24.1,21.9s-19.6,17.8-24.2,22-9.3,8.6-10.5,9.7c-1.2,1.2-10,9.3-19.6,18s-19.5,17.6-22,19.9c-10.8,10-20.1,18.5-27.1,24.6-4.1,3.7-8.5,7.8-9.9,9.1-1.4,1.4-5,4.7-8,7.3-3,2.7-10.3,9.3-16.1,14.7-5.9,5.4-11.8,10.8-13.2,12.1-3.6,3.1-16.7,15.1-32.6,29.7-7.5,6.9-15.1,13.9-17,15.5-1.9,1.7-4.1,3.7-5,4.6s-9,8.3-18.1,16.4c-15.2,13.6-25.6,23-41.5,37.5-3.3,3-10.5,9.5-16,14.5-8.6,7.8-21.1,19.3-29.5,27.2l-2.5,2.3h35.4l10.3-9.6c20.3-19,38.1-34.5,39.4-34.2.7.2,11.4,10.1,23.7,22.1l22.5,21.7h17.4l17.3-.1-30.7-30.5c-17-16.8-30.8-30.9-30.8-31.3,0-.5,3.9-4.4,8.7-8.7,4.8-4.4,12.1-11.1,16.2-14.9,4.2-3.9,12.1-11.1,17.6-16,5.5-5,10.5-9.5,11.1-10,8-7.4,40.2-36.5,45.8-41.5,6.4-5.7,8.6-7.7,19.5-17.8,5.7-5.4,11.2-10.4,12.3-11.3,5.1-4.5,20.1-18.1,26.3-24,3.9-3.6,12-11,18-16.4,11.9-10.8,28.4-25.7,38-34.6,3.3-3,8-7.3,10.5-9.6,2.5-2.2,10.4-9.3,17.5-15.9,28.2-25.7,31.5-28.7,33.4-30,1.7-1.3,4.1,1,29.7,27.4,15.4,15.8,32.4,33.2,37.9,38.8,9.2,9.3,40,41.1,72,74.4,7.1,7.4,18.6,19.3,25.5,26.5,6.9,7.1,18.2,18.8,25,26,11.4,11.9,20.7,21.5,41,42.3,8.9,9.2,41.5,43.1,55.2,57.5l9.8,10.2v-37l-13.1-13.5c-14.5-14.9-26.3-27.2-41.4-43-5.5-5.8-16.7-17.5-25-26-8.2-8.6-21.5-22.3-29.5-30.5-7.9-8.3-20.5-21.3-28-29-7.4-7.7-19.8-20.5-27.5-28.5s-27-28-43-44.5c-15.9-16.5-35.5-36.7-43.5-45-32.7-33.8-40.4-41.5-41.6-41.5-.6,0-9.4,7.5-19.5,16.7Z"/>
  <path class="cls-1" d="m0,187.2v15.6l9.8,8.9c23.1,21.3,49.8,45.7,62.7,57.3,18.5,16.7,37.4,34,46,42.1,3.9,3.7,8.8,8.2,11,10,2.2,1.9,6.9,6.1,10.5,9.5,3.6,3.3,8.8,8.1,11.5,10.5,2.8,2.4,9.7,8.7,15.5,14s12.7,11.6,15.4,14c8.2,7.3,50,45.2,68.2,61.8,9.3,8.6,20.6,18.7,24.9,22.6,7.2,6.4,15.9,14.2,38,34,4.4,4,9.6,8.6,11.7,10.4l3.6,3.1,16.5-.2,16.5-.3-20.7-18.7c-11.3-10.3-21.5-19.5-22.6-20.5-1.1-1.1-6.7-6.1-12.5-11.3-15-13.3-27.6-24.6-34.5-31-3.3-3.1-8-7.3-10.5-9.4-2.5-2.2-7.4-6.6-11-10s-8.3-7.7-10.5-9.5c-2.2-1.9-8.7-7.7-14.5-13-5.7-5.3-13.2-12.1-16.5-15.1s-6.2-5.7-6.5-6c-.8-.9-22.2-20.3-26.4-24-2.2-1.9-10.3-9.4-18.1-16.5-7.7-7.2-17.9-16.4-22.5-20.5-8.8-7.8-20.3-18.4-30.5-28-3.3-3.2-8.2-7.6-11-10-2.7-2.3-8.2-7.2-12.1-10.9-3.9-3.6-11.3-10.4-16.4-15.1-5.2-4.7-12.8-11.7-17-15.5-12.6-11.7-43.4-39.9-45.8-41.9l-2.2-1.9v15.5Z"/>
  <path class="cls-1" d="m1968.5,225.7c-2.2,2-6.3,5.7-9,8.2-2.8,2.5-7.3,6.6-10,9-5.9,5.3-23.2,21-32.5,29.7-3.6,3.3-8.8,8-11.6,10.5-4.4,3.8-17.5,15.6-31.9,28.9-2.2,2-6.5,5.8-9.5,8.5-3,2.6-8.5,7.5-12.1,10.9-6.9,6.4-7.7,7.1-25.9,23.6-6.3,5.7-11.7,10.6-12,10.9-.3.4-5,4.6-10.5,9.6-5.5,4.9-14.9,13.5-21,19.1-6,5.5-18.2,16.5-27,24.4s-17,15.3-18.2,16.4c-1.3,1.2-2.3,2.8-2.3,3.6s13.8,15.1,30.7,31.7l30.8,30.3h35l-31-31.1-31-31,4.5-4.2c5.7-5.2,25.7-23.5,37.5-34.2,13.4-12.1,11.7-11.7,18.6-4.9,3.3,3.3,28.3,28.3,55.7,55.6l49.7,49.8h35.7l-63.4-63.5c-34.8-34.9-63.4-64.1-63.6-64.8-.1-.7,3.5-4.6,8-8.8,4.6-4.1,15.9-14.5,25.2-23,9.2-8.5,17.7-16.1,18.8-16.9,2.3-1.6-8.7-12.4,127.7,125.8l50.6,51.3,17.2-.3,17.2-.3-12.1-12.5c-11.8-12.2-26.4-27-128.8-130.9-27.2-27.6-49.6-50.8-49.8-51.5-.1-.7,1.9-3.2,4.5-5.7,30.3-27.8,48.5-43.9,49.6-43.9.8,0,12.5,11.4,26,25.2,13.5,13.9,31.3,32.3,39.6,40.8,19.8,20.2,61.4,63,68.2,70,7.5,7.8,61.2,63.1,81.5,84,9.4,9.6,18.6,19.2,20.5,21.3l3.4,3.8,17.7-.3,17.6-.3-17-17.5c-21.7-22.3-51.2-52.7-100.8-104-36.6-37.9-36.3-37.5-53.5-55.2-35.7-36.3-89.5-91.7-93.9-96.6-3-3.2-5.7-5.2-7-5.2-1.1,0-3.9,1.7-6.1,3.7Z"/>
  <path class="cls-1" d="m0,250.2v15.5l6.3,5.2c3.4,2.9,10,9,14.7,13.5,10.8,10.2,18,16.9,30.1,27.6,5.2,4.7,17.2,15.5,26.5,24s23.2,21.1,30.9,28c7.6,6.9,16.6,15,19.9,18.1,6.3,5.8,31.4,28.4,54.1,48.8,7.1,6.4,15.9,14.3,19.5,17.6,14.9,13.6,26.2,23.8,39.1,35.2,7.4,6.6,14.8,13.2,16.3,14.7q2.9,2.6,19.5,2.6h16.6l-4.5-4.3c-6-5.6-19.8-18.1-40-36.2-20.9-18.7-21-18.8-36.6-33-7.1-6.6-14.6-13.4-16.5-15-3.6-3.2-30.2-27-32.9-29.5-.9-.8-6.5-6-12.5-11.5s-11.6-10.6-12.3-11.2c-.7-.7-9.7-8.8-20-18-10.2-9.3-22.2-20.2-26.7-24.4-4.4-4.2-10.5-9.8-13.5-12.4-3-2.7-8-7.2-11-10-3-2.9-7.5-7-10-9.1s-10.1-9-17-15.4c-6.9-6.3-17.4-16-23.5-21.5-6-5.5-11.4-10.5-12-11-4.5-4.8-4.5-4.7-4.5,11.7Z"/>
  <path class="cls-1" d="m967,291.1c-1.9,1.7-8,7.4-13.5,12.7-5.5,5.4-19.5,18.7-31,29.7s-26.1,24.9-32.5,31c-6.3,6-15.5,14.8-20.5,19.5-4.9,4.7-14.6,13.9-21.5,20.5s-22.2,21.2-34,32.5c-11.8,11.2-30.8,29.3-42.1,40.1-11.3,10.9-21.6,20.7-23,21.8l-2.4,2,17.8.1h17.8l4.7-4.7c2.6-2.7,8.4-8.1,12.7-12.2,4.4-4,12.7-11.9,18.5-17.5,9.7-9.3,38.8-37,47-44.6,1.9-1.8,7.8-7.4,13-12.4,5.2-5.1,22.1-21.1,37.5-35.6,15.4-14.6,34-32.2,41.3-39.2,7.4-7.1,13.8-12.8,14.4-12.8,1.6,0,5.1,3,21.7,18.8,8.6,8.2,19,17.9,23.1,21.7,7.5,6.9,13.2,12.3,35,33.1,6.3,6.1,15.3,14.6,20,19,7.9,7.3,19.1,17.9,35,32.9,3.6,3.4,14.4,13.5,24,22.5s21,19.6,25.2,23.7l7.7,7.3h17.8l17.8-.1-3.5-3.1c-4.8-4.3-60.2-56.3-84-78.8-10.8-10.2-27.2-25.7-36.5-34.4-9.4-8.8-25.8-24.3-36.5-34.5-10.7-10.3-23.3-22.2-28-26.6s-15-14.1-22.8-21.5c-7.9-7.4-14.9-13.6-15.5-13.7-.7-.2-2.8,1.1-4.7,2.8Z"/>
  <path class="cls-1" d="m1967.8,289.7c-.1.5-3.5,3.6-7.5,7.1-3.9,3.5-7.4,6.9-7.6,7.7-.6,1.4,1.9,4,64.7,68,65.1,66.2,83.9,85.4,95.9,97.8,5.9,6.2,15.1,15.6,20.4,20.9l9.6,9.8h35.1l-5.9-6.1c-3.3-3.4-7.8-8-9.9-10.3-2.2-2.2-13.9-14.2-26-26.6-12.2-12.4-39.7-40.5-61.1-62.5-40.5-41.5-70.1-71.8-91.5-93.7-11.2-11.5-15.1-14.4-16.2-12.1Z"/>
  <path class="cls-1" d="m0,312.1v15.4l16.7,15c35.4,31.9,49.4,44.5,69.2,62.6,6.3,5.7,20.7,18.7,32,28.8s26.7,23.9,34.1,30.6c7.4,6.8,19.6,17.7,27,24.4l13.5,12.1h33l-5.5-5.3c-5-4.7-8.7-8-19.1-17.2-1.9-1.6-8.6-7.7-15-13.5-6.3-5.8-17.8-16.1-25.5-22.9-7.6-6.9-14.3-12.9-14.9-13.5-.5-.6-3-2.9-5.5-5-2.5-2.2-8.3-7.4-13-11.6s-21.1-19.1-36.5-33c-15.4-14-28.2-25.7-28.5-26s-5.4-5.1-11.5-10.5c-6-5.5-13.5-12.3-16.5-15.1s-10.4-9.5-16.5-14.9c-6-5.4-12.5-11.2-14.2-12.9l-3.3-3v15.5Z"/>
  <path class="cls-1" d="m963.5,362.6c-3.9,3.7-10.8,10.3-15.5,14.8s-15.9,15.1-25,23.6-18.3,17.3-20.5,19.5-11,10.5-19.4,18.5c-8.5,8-20.4,19.3-26.5,25.1s-14.2,13.5-18.1,17c-3.8,3.6-10.1,9.5-14,13.2l-7,6.7h35.6l11.7-11.3c6.4-6.1,15.7-15,20.7-19.7,4.9-4.7,12.6-12,17-16.2s9.1-8.6,10.4-9.8c3.3-2.8,25.8-23.7,29.6-27.5,14-13.8,28.7-27.5,29.7-27.5.6,0,4.3,3,8.3,6.7,3.9,3.8,10.2,9.7,14,13.3,3.9,3.5,11.1,10.2,16,14.9,26.7,25.3,35.7,33.7,52,48.8,6.1,5.6,15.3,14.2,20.5,19.2l9.5,9,17.3.1c9.4,0,17.2-.2,17.2-.4,0-.3-17.9-17.3-42.5-40.1-7.1-6.6-17.4-16.3-23-21.6-14.9-14.1-26.6-25.3-27.9-26.4-1.2-1-12.3-11.4-25.6-24-22.8-21.6-35-32.5-36.2-32.5-.7,0-4.5,3-8.3,6.6Z"/>
  <path class="cls-1" d="m1889,361.7c-2.9,2.7-6.7,6.1-8.2,7.6l-2.9,2.9,3.7,4.1c2,2.3,30.7,31.3,63.7,64.4l60.1,60.3h17.5c9.6,0,17.2-.2,17-.4s-17-17.2-37.3-37.8c-74.6-75.6-105.1-105.8-106.6-105.8-.8,0-4,2.1-7,4.7Z"/>
  <path class="cls-1" d="m0,373.7v14.9l2.7,2.4c4,3.4,20.3,18,30.8,27.5,30.2,27.5,80.9,72.9,89,79.8l3.3,2.8,16.1-.3,16.2-.3-9.8-8.7c-5.4-4.8-11.6-10.3-13.8-12.3-8-7.3-10.2-9.2-20.1-18-5.5-5-23.5-21.2-39.9-36-30.7-27.9-35.7-32.4-55.9-50.4-12.8-11.4-13-11.6-16.4-14.5l-2.2-1.9v15Z"/>
  <path class="cls-1" d="m0,434.4v14.4l13.2,11.8c7.2,6.6,18.4,16.6,24.7,22.4,6.4,5.8,13.7,12.2,16.2,14.2l4.6,3.8h16.4l16.4-.1-3-2.6c-12.2-10.5-67-59.7-81-72.7-3.3-3-6.3-5.6-6.7-5.6-.5,0-.8,6.5-.8,14.4Z"/>
  <path class="cls-1" d="m952.4,440.7c-11,10.2-26.6,25-34.9,32.7-8.2,7.8-18.1,17.1-22,20.8l-7,6.8h34.8l4.6-4.2c2.5-2.3,10.7-9.9,18.1-16.9s16.2-15.2,19.5-18.3,6.7-5.6,7.6-5.6c.8,0,2.8,1.4,4.5,3.1,1.6,1.7,12.4,11.8,24.1,22.5l21.1,19.4h17.4l17.3-.1-4.7-4.3c-2.6-2.4-11.6-10.8-20-18.6-8.4-7.9-17.5-16.4-20.3-18.9-2.7-2.6-11.5-10.8-19.5-18.3s-15.9-14.8-17.6-16.2l-3.2-2.6-19.8,18.7Z"/>
  <path class="cls-1" d="m1813.2,430.1c-4.5,3.9-8.2,7.8-8.2,8.7,0,1,13.7,15.3,30.5,31.9l30.6,30.3h35.4l-39-39c-21.5-21.5-39.5-39-40.1-39s-4.7,3.2-9.2,7.1Z"/>
  <path class="cls-1" d="m0,490.4v10.6h24l-9.1-8.5c-5-4.7-10.4-9.5-12-10.6l-2.9-2v10.5Z"/>
  <path class="cls-1" d="m966,495l-6.5,5.9h13.5l13.5.1-6.2-6c-3.3-3.3-6.5-6-7-6-.4,0-3.7,2.7-7.3,6Z"/>
  <path class="cls-1" d="m1671.8,495l-6.3,6h25.9l-4.9-5.1c-7.7-7.8-7.4-7.8-14.7-.9Z"/>
</svg>