<?xml version="1.0" standalone="no"?>
<!DOCTYPE svg PUBLIC "-//W3C//DTD SVG 20010904//EN"
 "http://www.w3.org/TR/2001/REC-SVG-20010904/DTD/svg10.dtd">
<svg version="1.0" xmlns="http://www.w3.org/2000/svg"
 width="1920.000000pt" height="1080.000000pt" viewBox="0 0 1920.000000 1080.000000"
 preserveAspectRatio="xMidYMid meet">

<g transform="translate(0.000000,1080.000000) scale(0.100000,-0.100000)"
fill="#000000" stroke="none">
<path d="M11824 7072 c-86 -41 -145 -150 -129 -241 10 -58 57 -125 108 -155
91 -54 198 -44 272 25 62 57 78 97 73 179 -4 80 -35 134 -100 177 -55 37 -162
44 -224 15z"/>
<path d="M14330 5885 l0 -1165 165 0 165 0 2 318 3 319 354 -319 353 -318 237
0 236 1 -41 37 c-22 20 -244 221 -493 446 -248 225 -450 412 -449 417 2 4 208
186 458 404 250 219 459 401 465 406 5 5 -91 9 -236 9 l-245 0 -319 -280 -320
-279 -3 584 -2 585 -165 0 -165 0 0 -1165z"/>
<path d="M6548 6738 l-3 -293 -137 -3 -138 -3 0 -149 0 -150 140 0 140 0 0
-710 0 -710 165 0 165 0 0 710 0 710 160 0 160 0 0 150 0 150 -160 0 -160 0 0
295 0 295 -165 0 -165 0 -2 -292z"/>
<path d="M3080 5855 l0 -1136 403 3 c376 4 407 6 482 26 141 38 238 94 336
191 99 99 147 183 175 307 22 103 16 263 -15 354 -50 146 -176 305 -274 346
-26 10 -47 21 -47 24 0 3 15 15 34 27 112 72 174 323 131 528 -47 223 -195
370 -440 437 -74 20 -109 22 -432 26 l-353 4 0 -1137z m718 781 c72 -23 146
-94 162 -156 16 -58 8 -146 -18 -197 -68 -132 -170 -179 -407 -185 l-120 -3
-3 284 -2 283 167 -5 c118 -3 184 -9 221 -21z m40 -901 c193 -47 303 -168 303
-334 1 -84 -24 -151 -78 -211 -96 -107 -177 -130 -457 -133 l-191 -2 -3 354
-2 354 182 -6 c110 -4 208 -12 246 -22z"/>
<path d="M10040 5856 l0 -1136 170 0 170 0 0 500 0 500 143 0 c200 0 417 17
517 41 230 54 385 189 445 389 25 83 30 259 11 350 -38 180 -157 333 -317 409
-146 70 -177 73 -686 78 l-453 5 0 -1136z m853 793 c172 -27 266 -129 267
-289 0 -167 -100 -267 -302 -300 -35 -5 -156 -10 -270 -10 l-208 0 0 305 0
305 221 0 c121 0 253 -5 292 -11z"/>
<path d="M492 6428 l3 -173 607 -250 c334 -137 604 -253 600 -256 -4 -4 -257
-109 -562 -234 -305 -125 -576 -236 -602 -247 l-48 -20 0 -170 c0 -158 1 -170
17 -164 10 4 395 165 856 359 l838 352 -3 128 -3 128 -805 341 c-443 187 -826
348 -853 359 l-47 19 2 -172z"/>
<path d="M8000 6466 c-507 -107 -808 -667 -640 -1190 89 -276 316 -489 605
-567 115 -32 364 -32 480 -1 239 65 427 221 578 484 l27 46 -136 71 c-75 39
-139 71 -143 71 -3 -1 -26 -33 -51 -72 -133 -214 -300 -311 -535 -310 -122 0
-205 24 -294 83 -66 44 -142 130 -185 208 -26 49 -56 148 -56 188 l0 23 715 0
715 0 0 43 c0 23 -5 81 -10 127 -48 395 -274 680 -621 781 -95 27 -348 36
-449 15z m370 -334 c147 -52 257 -138 310 -245 16 -33 30 -66 30 -74 0 -11
-90 -13 -510 -13 -343 0 -510 3 -510 10 0 6 14 38 31 71 62 123 216 240 354
268 74 15 230 6 295 -17z"/>
<path d="M13080 6469 c-93 -16 -246 -74 -332 -125 -158 -95 -302 -265 -369
-439 -86 -221 -82 -496 10 -698 109 -242 342 -430 617 -499 127 -32 369 -32
497 0 178 44 310 115 429 230 85 82 154 170 142 181 -9 9 -243 161 -247 161
-1 0 -39 -35 -83 -78 -129 -122 -242 -180 -400 -201 -199 -28 -391 35 -529
173 -115 116 -169 249 -168 417 1 247 154 452 398 535 104 34 248 43 355 20
137 -29 291 -122 385 -233 l36 -42 108 67 c59 37 118 74 130 82 l23 15 -43 64
c-120 179 -279 292 -494 351 -63 18 -114 23 -245 26 -91 1 -190 -1 -220 -7z"/>
<path d="M16280 6464 c-236 -63 -383 -301 -340 -551 32 -193 155 -323 450
-474 123 -63 202 -133 220 -194 35 -119 -79 -239 -226 -239 -83 0 -168 42
-264 131 l-73 67 -26 -31 c-14 -17 -61 -71 -103 -120 l-76 -89 40 -47 c88
-103 240 -194 373 -222 355 -75 673 160 676 500 1 104 -7 145 -42 223 -51 115
-169 217 -382 332 -194 104 -275 187 -264 270 11 86 94 146 192 138 67 -6 159
-50 243 -118 75 -60 55 -69 193 82 l89 96 -67 57 c-99 83 -217 152 -306 180
-91 29 -218 33 -307 9z"/>
<path d="M4563 6428 c2 -7 154 -350 337 -763 183 -412 333 -754 333 -760 0 -8
-186 -437 -306 -707 l-26 -58 177 0 177 0 495 1136 c272 625 496 1142 498
1150 3 12 -27 14 -171 14 l-174 0 -244 -565 c-235 -544 -244 -563 -258 -538
-7 15 -116 257 -241 537 -125 281 -233 523 -240 539 l-13 27 -175 0 c-135 0
-173 -3 -169 -12z"/>
<path d="M11760 5580 l0 -860 165 0 165 0 0 860 0 860 -165 0 -165 0 0 -860z"/>
<path d="M17215 4521 c-60 -27 -79 -62 -80 -143 0 -75 17 -109 76 -143 33 -19
54 -20 784 -22 687 -2 754 -1 799 15 28 9 58 29 69 43 42 57 39 169 -6 218
-48 52 -30 51 -844 51 -714 0 -760 -2 -798 -19z"/>
</g>
</svg>
