<?xml version="1.0" standalone="no"?>
<!DOCTYPE svg PUBLIC "-//W3C//DTD SVG 20010904//EN"
 "http://www.w3.org/TR/2001/REC-SVG-20010904/DTD/svg10.dtd">
<svg version="1.0" xmlns="http://www.w3.org/2000/svg"
 width="512.000000pt" height="512.000000pt" viewBox="0 0 512.000000 512.000000"
 preserveAspectRatio="xMidYMid meet">

<g transform="translate(0.000000,512.000000) scale(0.100000,-0.100000)"
fill="#000000" stroke="none">
<path d="M3480 5114 c-14 -2 -56 -9 -95 -15 -160 -25 -354 -104 -505 -204 -97
-65 -284 -250 -347 -345 -357 -534 -294 -1217 153 -1666 146 -147 334 -262
535 -325 l99 -32 -2 -324 -3 -325 -345 -194 c-190 -108 -377 -213 -415 -234
l-71 -39 -59 39 c-94 63 -156 83 -255 83 -99 0 -161 -20 -255 -83 l-59 -39
-71 39 c-38 21 -225 127 -415 234 l-345 195 -3 1222 c-1 895 1 1225 9 1235 9
12 115 14 591 14 l579 0 24 25 c32 31 32 69 0 101 l-25 24 -603 -2 -603 -3
-41 -27 c-24 -16 -49 -44 -62 -70 -21 -44 -21 -51 -21 -765 l0 -721 -335 -328
-335 -329 0 -1015 0 -1015 24 -51 c29 -63 85 -120 145 -148 l46 -21 1755 0
1755 0 46 21 c53 25 112 82 143 139 l21 40 3 1025 3 1025 -137 132 c-88 85
-132 134 -123 137 8 3 43 12 79 21 220 56 439 189 612 374 230 244 348 547
348 892 0 357 -130 669 -385 924 -185 185 -416 310 -669 361 -70 14 -337 27
-386 18z m367 -168 c229 -50 424 -156 589 -321 164 -166 280 -387 319 -613 20
-111 19 -317 -1 -422 -80 -426 -427 -795 -852 -907 -119 -31 -335 -42 -464
-23 -161 23 -346 98 -487 197 -146 103 -299 281 -381 443 -219 434 -128 974
224 1326 175 176 396 290 634 329 107 18 318 13 419 -9z m-2981 -2973 c-2 -2
-30 11 -62 30 -33 19 -137 78 -233 132 l-173 97 233 234 234 234 3 -361 c1
-199 1 -364 -2 -366z m2943 393 l133 -133 -88 -51 c-278 -157 -376 -212 -380
-212 -2 0 -4 120 -4 268 l0 267 103 -3 103 -3 133 -133z m-2774 -666 c363
-204 663 -375 667 -378 3 -4 -147 -106 -334 -227 -187 -121 -349 -231 -360
-245 -21 -27 -18 -62 9 -92 38 -42 58 -32 543 283 255 165 482 310 505 322 58
30 155 29 216 -4 26 -13 421 -267 878 -563 l831 -540 -18 -29 c-9 -17 -30 -39
-45 -51 l-28 -21 -1717 -3 c-1218 -1 -1725 1 -1743 9 -32 13 -76 57 -81 81 -2
12 57 55 222 162 124 80 235 157 247 172 38 43 25 92 -31 114 -34 13 -38 11
-261 -135 -96 -63 -178 -115 -180 -115 -3 0 -5 369 -5 821 0 662 2 820 13 816
7 -2 309 -172 672 -377z m2955 -440 c0 -451 -2 -820 -4 -820 -2 0 -145 91
-318 203 -172 112 -475 308 -673 437 -198 128 -361 234 -363 235 -4 4 -50 -22
698 400 355 200 648 364 653 365 4 0 7 -369 7 -820z"/>
<path d="M3566 4779 c-22 -17 -26 -28 -26 -72 l0 -52 -52 -13 c-194 -45 -351
-208 -393 -407 -11 -51 -15 -140 -15 -334 l0 -264 -66 -119 c-71 -127 -79
-166 -55 -240 15 -46 78 -103 128 -117 21 -6 95 -11 166 -11 l127 0 0 -55 c0
-99 51 -176 142 -215 89 -38 188 -19 257 51 45 45 63 85 69 155 l5 62 146 4
c168 3 194 13 246 87 25 36 30 52 30 104 0 58 -5 70 -67 183 l-68 121 0 280
c0 218 -3 292 -15 338 -44 166 -178 309 -343 364 -34 12 -68 21 -75 21 -10 0
-16 17 -19 57 -4 43 -10 61 -28 75 -29 24 -61 23 -94 -3z m139 -283 c28 -7 65
-21 84 -31 61 -31 137 -112 167 -178 l29 -62 3 -262 3 -263 -381 0 -380 0 0
225 c0 128 5 247 11 277 24 112 92 206 187 256 97 52 183 64 277 38z m372
-1046 c58 -104 63 -124 34 -140 -13 -6 -187 -10 -496 -10 -309 0 -483 4 -496
10 -30 16 -23 45 33 146 l52 94 410 -2 411 -3 52 -95z m-377 -341 c0 -31 -6
-47 -29 -70 -60 -60 -141 -23 -141 66 l0 45 85 0 85 0 0 -41z"/>
<path d="M1351 3904 c-26 -33 -27 -65 -2 -95 18 -22 27 -24 141 -27 131 -4
162 5 179 51 10 28 -5 74 -29 87 -10 6 -75 10 -144 10 -123 0 -125 0 -145 -26z"/>
<path d="M1355 3645 c-14 -13 -25 -36 -25 -50 0 -14 11 -37 25 -50 l24 -25
341 0 341 0 24 25 c14 13 25 36 25 50 0 14 -11 37 -25 50 l-24 25 -341 0 -341
0 -24 -25z"/>
<path d="M1374 3396 c-48 -21 -60 -75 -24 -114 21 -22 24 -22 370 -22 l349 0
20 26 c27 35 26 57 -3 91 l-24 28 -329 2 c-260 2 -334 0 -359 -11z"/>
<path d="M2030 2955 c-231 -52 -425 -242 -485 -475 -25 -96 -17 -272 17 -362
51 -138 155 -266 271 -336 104 -63 271 -106 342 -88 29 7 56 56 47 88 -8 30
-51 58 -92 58 -128 0 -299 103 -379 229 -114 178 -91 427 53 588 190 212 503
218 705 14 142 -142 179 -324 98 -483 -25 -49 -41 -67 -70 -81 -47 -23 -84
-16 -97 19 -6 14 -10 146 -10 294 l0 269 -26 20 c-15 12 -34 21 -44 21 -26 0
-70 -39 -70 -62 0 -12 -5 -18 -12 -14 -60 24 -126 38 -165 32 -177 -24 -293
-180 -281 -375 7 -110 39 -183 107 -252 96 -96 212 -114 322 -52 l51 28 39
-37 c68 -65 160 -73 259 -23 101 51 174 193 187 364 14 195 -102 410 -284 528
-133 86 -331 122 -483 88z m180 -443 c80 -58 95 -230 28 -328 -57 -83 -150
-84 -211 -2 -33 45 -47 91 -47 157 1 150 129 246 230 173z"/>
</g>
</svg>
