<?xml version="1.0" standalone="no"?>
<!DOCTYPE svg PUBLIC "-//W3C//DTD SVG 20010904//EN"
 "http://www.w3.org/TR/2001/REC-SVG-20010904/DTD/svg10.dtd">
<svg version="1.0" xmlns="http://www.w3.org/2000/svg"
 width="512.000000pt" height="512.000000pt" viewBox="0 0 512.000000 512.000000"
 preserveAspectRatio="xMidYMid meet">

<g transform="translate(0.000000,512.000000) scale(0.100000,-0.100000)"
fill="#000000" stroke="none">
<path d="M3370 5103 c-506 -77 -934 -466 -1065 -968 -153 -591 127 -1214 672
-1493 207 -105 405 -148 648 -139 265 10 470 76 685 221 81 55 87 57 120 47
50 -15 104 -63 129 -116 11 -24 21 -49 21 -54 0 -16 -1921 -1313 -1975 -1334
-67 -25 -181 -20 -243 12 -78 40 -1972 1312 -1972 1324 1 28 40 95 73 124 74
65 46 63 1048 63 l908 0 20 26 c27 35 26 57 -3 91 l-24 28 -894 3 c-951 3
-988 1 -1076 -45 -58 -30 -125 -94 -158 -151 -55 -94 -55 -84 -52 -1330 l3
-1147 29 -62 c33 -73 103 -144 174 -176 l47 -22 2000 0 2000 0 58 30 c73 36
140 109 167 181 20 55 20 64 18 1247 l-3 1192 -26 55 c-32 68 -80 125 -137
161 l-43 27 49 56 c304 347 397 847 241 1293 -58 166 -157 327 -283 460 -296
314 -729 462 -1156 396z m355 -143 c177 -26 346 -89 492 -185 105 -70 250
-213 316 -313 258 -387 268 -876 26 -1268 -63 -104 -230 -278 -328 -344 -217
-145 -435 -207 -701 -197 -233 8 -408 64 -599 191 -111 74 -252 215 -324 323
-355 535 -206 1257 331 1610 234 154 520 221 787 183z m-2637 -3016 c383 -256
703 -471 710 -478 11 -11 -116 -101 -693 -495 -388 -264 -710 -481 -715 -481
-7 0 -10 344 -10 960 0 528 3 960 6 960 3 0 319 -210 702 -466z m3488 -1451
c-2 -3 -134 83 -292 191 -174 119 -297 196 -311 196 -31 0 -73 -42 -73 -74 0
-14 10 -36 23 -49 12 -14 155 -115 318 -226 163 -111 307 -209 319 -219 l22
-18 -21 -42 c-12 -24 -39 -54 -63 -69 l-42 -28 -1950 -3 c-1385 -2 -1962 0
-1989 8 -50 14 -103 63 -117 106 -7 20 -10 37 -8 38 46 35 1546 1052 1554
1054 7 2 87 -47 178 -107 204 -136 260 -156 400 -149 51 3 111 13 136 23 25
10 118 66 207 126 l161 108 315 -215 c334 -227 354 -237 397 -194 23 23 26 68
8 93 -7 9 -139 102 -293 207 -154 105 -281 194 -282 198 -2 4 313 221 700 483
l702 476 3 -955 c1 -525 0 -957 -2 -959z"/>
<path d="M4055 4485 c-22 -8 -327 -122 -679 -254 -674 -253 -683 -257 -707
-328 -30 -92 20 -162 153 -214 l88 -34 -6 -205 -6 -205 29 -55 c21 -40 42 -63
78 -85 l49 -30 214 0 214 0 39 -90 c42 -99 69 -129 128 -145 51 -14 117 7 150
48 28 34 518 1333 527 1398 21 143 -125 251 -271 199z m-355 -510 c-184 -184
-340 -335 -346 -335 -5 0 -131 49 -278 109 l-268 109 43 16 c397 151 1158 434
1169 435 8 1 -136 -150 -320 -334z m216 -381 c-123 -329 -228 -597 -232 -594
-5 2 -57 121 -115 265 l-106 260 335 337 c185 186 337 336 339 334 1 -1 -98
-272 -221 -602z m-710 -60 l110 -45 52 -126 c29 -70 51 -128 49 -129 -1 -2
-73 -6 -160 -10 -156 -7 -158 -7 -182 16 -24 22 -25 29 -25 134 0 158 9 219
29 211 9 -3 66 -26 127 -51z"/>
<path d="M2191 2353 c-11 -10 -24 -32 -27 -50 -5 -26 -1 -37 19 -57 l26 -26
270 0 c148 0 277 3 286 6 26 10 44 62 33 94 -16 46 -39 50 -322 50 -237 0
-266 -2 -285 -17z"/>
<path d="M1852 2083 c-7 -3 -19 -18 -28 -35 -13 -25 -13 -35 -3 -59 6 -17 20
-34 30 -39 11 -6 260 -10 637 -10 l619 0 21 23 c31 33 29 80 -4 106 -26 21
-34 21 -643 20 -339 0 -622 -3 -629 -6z"/>
</g>
</svg>
