<?xml version="1.0" encoding="UTF-8" standalone="no"?>
<svg
   version="1.0"
   width="579pt"
   height="400pt"
   viewBox="0 0 579 400"
   preserveAspectRatio="xMidYMid"
   id="svg2"
   xmlns="http://www.w3.org/2000/svg"
   xmlns:svg="http://www.w3.org/2000/svg">
  <defs
     id="defs2" />
  <g
     id="layer1">
    <rect
       style="fill:#dbe3e8;fill-opacity:1;stroke-width:0.75"
       id="rect2"
       width="556.67078"
       height="383.84332"
       x="9.7919216"
       y="5.3855572" />
  </g>
  <g
     transform="matrix(0.1,0,0,-0.1,0,400)"
     fill="#000000"
     stroke="none"
     id="g2">
    <path
       d="m 660,3039 v -174 l 610,-250 c 335,-137 606,-252 602,-256 -4,-4 -268,-113 -587,-244 -319,-131 -590,-242 -602,-248 -23,-10 -23,-14 -23,-179 0,-92 3,-168 7,-168 4,0 389,161 855,357 l 849,358 -3,128 -3,129 -840,355 c -462,195 -846,357 -852,360 -10,4 -13,-33 -13,-168 z"
       id="path1" />
    <path
       d="m 2920,1128 c -59,-31 -82,-75 -77,-151 4,-65 25,-101 78,-132 33,-20 52,-20 804,-20 718,0 772,1 802,18 39,21 62,53 73,104 11,49 -5,121 -33,152 -48,52 -30,51 -845,51 h -758 z"
       id="path2" />
  </g>
</svg>
